<?xml version="1.0" encoding="UTF-8"?>
<!DOCTYPE svg PUBLIC "-//W3C//DTD SVG 1.1//EN" "http://www.w3.org/Graphics/SVG/1.1/DTD/svg11.dtd">
<svg version="1.1" xmlns:x="http://ns.adobe.com/Extensibility/1.0/" xmlns:i="http://ns.adobe.com/AdobeIllustrator/10.0/" xmlns:graph="http://ns.adobe.com/Graphs/1.0/" xmlns="http://www.w3.org/2000/svg" xmlns:xlink="http://www.w3.org/1999/xlink" x="0px" y="0px" viewBox="0 0 48 48" style="enable-background:new 0 0 48 48;" xml:space="preserve">
<style type="text/css">
	.st0{display:none;}
</style>
<switch>
	<foreignObject requiredExtensions="http://ns.adobe.com/AdobeIllustrator/10.0/" x="0" y="0" width="1" height="1">
		<i:pgfRef xlink:href="#adobe_illustrator_pgf">
		</i:pgfRef>
	</foreignObject>
	<g i:extraneous="self">
		<g id="grid">
		</g>
		<g id="Layer_3">
			<g id="icons_Q2_4_">
				<g>
					<path d="M45.4,21.9c-2.1-2.6-9.9-11.1-21.3-11.1c-1.3,0-2.5,0.1-3.8,0.3l3.6,3.7h0.2c8.8,0,15.3,6.2,17.7,9       c-1.4,1.6-2.9,3-4.6,4.3l2.8,2.8c2-1.5,3.8-3.2,5.4-5.2C46.3,24.6,46.3,23,45.4,21.9z"/>
					<path d="M29.5,26.4c0.4-0.8,0.6-1.7,0.6-2.6c0-3.3-2.7-6-6-6c-0.9,0-1.8,0.2-2.6,0.6L9.8,6.7C8.9,6.1,7.6,6.2,7,7.1       C6.4,7.8,6.4,8.8,7,9.5l4.7,4.8c-3.4,2-6.4,4.5-8.9,7.6c-0.9,1.1-0.9,2.7,0,3.8c2.1,2.6,9.9,11.1,21.3,11.1       c2.9,0,5.8-0.5,8.5-1.6l5.8,5.7c0.7,0.9,1.9,1.1,2.8,0.4s1.1-1.9,0.4-2.8c-0.1-0.2-0.2-0.3-0.4-0.4L29.5,26.4z M24.1,32.8       c-8.8,0-15.3-6.2-17.7-9c2.3-2.7,5.2-4.9,8.3-6.6l4,4c-0.4,0.8-0.6,1.7-0.6,2.6c0,3.3,2.7,6,6,6c0.9,0,1.8-0.2,2.6-0.6l2.8,2.8       C27.7,32.5,25.9,32.8,24.1,32.8z"/>
				</g>
			</g>
		</g>
	</g>
</switch>
</svg>